<svg width="30" height="27" viewBox="0 0 30 27" fill="none" xmlns="http://www.w3.org/2000/svg">
<path d="M4.5 2C3.94772 2 3.5 2.44772 3.5 3C3.5 3.55228 3.94772 4 4.5 4V2ZM6.72222 3L7.7026 2.80288C7.60872 2.33593 7.19852 2 6.72222 2V3ZM6.18629 5.40762C6.29515 5.94907 6.82233 6.29975 7.36378 6.19089C7.90523 6.08202 8.25591 5.55484 8.14705 5.01339L6.18629 5.40762ZM8.94444 13.0525C8.39216 13.0525 7.94444 13.5002 7.94444 14.0525C7.94444 14.6048 8.39216 15.0525 8.94444 15.0525V13.0525ZM20.0556 14.0525V15.0525C20.4336 15.0525 20.7793 14.8394 20.949 14.5016L20.0556 14.0525ZM24.5 5.21051L25.3935 5.65961C25.5493 5.34962 25.5333 4.98101 25.3512 4.68568C25.1691 4.39035 24.847 4.21051 24.5 4.21051V5.21051ZM7.16667 4.21051C6.61438 4.21051 6.16667 4.65822 6.16667 5.21051C6.16667 5.76279 6.61438 6.21051 7.16667 6.21051V4.21051ZM7.96406 14.2496C8.07293 14.7911 8.60011 15.1418 9.14156 15.0329C9.68301 14.924 10.0337 14.3969 9.92482 13.8554L7.96406 14.2496ZM8.14705 5.01339C8.03818 4.47194 7.511 4.12126 6.96955 4.23012C6.4281 4.33899 6.07742 4.86617 6.18629 5.40762L8.14705 5.01339ZM9.64968 14.7615C10.0412 14.372 10.0429 13.7388 9.65342 13.3473C9.26393 12.9557 8.63076 12.9541 8.23921 13.3436L9.64968 14.7615ZM6.39667 16.5869L5.69143 15.8779L6.39667 16.5869ZM20.0556 19.4735C20.6078 19.4735 21.0556 19.0258 21.0556 18.4735C21.0556 17.9213 20.6078 17.4735 20.0556 17.4735V19.4735ZM20.0556 18.4735H19.0556C19.0556 18.7397 19.1616 18.9948 19.3503 19.1825L20.0556 18.4735ZM22.2778 20.684L21.5725 21.393C21.7599 21.5794 22.0135 21.684 22.2778 21.684V20.684ZM11.1667 20.684L10.3018 20.1821C10.2133 20.3345 10.1667 20.5077 10.1667 20.684H11.1667ZM11.1667 22.8945H10.1667C10.1667 23.0709 10.2133 23.244 10.3018 23.3965L11.1667 22.8945ZM4.5 4H6.72222V2H4.5V4ZM5.74184 3.19712L6.18629 5.40762L8.14705 5.01339L7.7026 2.80288L5.74184 3.19712ZM8.94444 15.0525H20.0556V13.0525H8.94444V15.0525ZM20.949 14.5016L25.3935 5.65961L23.6065 4.7614L19.1621 13.6034L20.949 14.5016ZM24.5 4.21051H7.16667V6.21051H24.5V4.21051ZM9.92482 13.8554L8.14705 5.01339L6.18629 5.40762L7.96406 14.2496L9.92482 13.8554ZM8.23921 13.3436L5.69143 15.8779L7.1019 17.2958L9.64968 14.7615L8.23921 13.3436ZM5.69143 15.8779C4.35112 17.2111 5.31103 19.4735 7.18222 19.4735V17.4735C7.14208 17.4735 7.12553 17.4635 7.11734 17.4578C7.10473 17.4489 7.08938 17.4322 7.07888 17.407C7.06837 17.3817 7.06775 17.3602 7.07003 17.3471C7.07136 17.3395 7.07483 17.3228 7.1019 17.2958L5.69143 15.8779ZM7.18222 19.4735H20.0556V17.4735H7.18222V19.4735ZM21.0556 18.4735C21.0556 17.81 21.5978 17.263 22.2778 17.263V15.263C20.5032 15.263 19.0556 16.6954 19.0556 18.4735H21.0556ZM22.2778 17.263C22.9578 17.263 23.5 17.81 23.5 18.4735H25.5C25.5 16.6954 24.0524 15.263 22.2778 15.263V17.263ZM23.5 18.4735C23.5 19.1371 22.9578 19.684 22.2778 19.684V21.684C24.0524 21.684 25.5 20.2516 25.5 18.4735H23.5ZM22.983 19.9751L20.7608 17.7646L19.3503 19.1825L21.5725 21.393L22.983 19.9751ZM12.0315 21.186C12.3068 20.7119 12.8711 20.4771 13.4088 20.6204L13.9239 18.6878C12.5185 18.3133 11.0324 18.9233 10.3018 20.1821L12.0315 21.186ZM13.4088 20.6204C13.9456 20.7635 14.3134 21.2451 14.3134 21.7893H16.3134C16.3134 20.3325 15.3301 19.0627 13.9239 18.6878L13.4088 20.6204ZM14.3134 21.7893C14.3134 22.3335 13.9456 22.8151 13.4088 22.9582L13.9239 24.8907C15.3301 24.5159 16.3134 23.2461 16.3134 21.7893H14.3134ZM13.4088 22.9582C12.8711 23.1015 12.3068 22.8667 12.0315 22.3926L10.3018 23.3965C11.0324 24.6553 12.5185 25.2653 13.9239 24.8907L13.4088 22.9582ZM12.1667 22.8945V20.684H10.1667V22.8945H12.1667Z" fill="black"/>
<circle cx="24" cy="5" r="5" fill="#ACD9B2"/>
</svg>
