<svg width="25" height="25" viewBox="0 0 25 25" fill="none" xmlns="http://www.w3.org/2000/svg">
<path d="M2.5 1C1.94772 1 1.5 1.44772 1.5 2C1.5 2.55228 1.94772 3 2.5 3V1ZM4.72222 2L5.7026 1.80288C5.60872 1.33593 5.19852 1 4.72222 1V2ZM4.18629 4.40762C4.29515 4.94907 4.82233 5.29975 5.36378 5.19089C5.90523 5.08202 6.25591 4.55484 6.14705 4.01339L4.18629 4.40762ZM6.94444 12.0525C6.39216 12.0525 5.94444 12.5002 5.94444 13.0525C5.94444 13.6048 6.39216 14.0525 6.94444 14.0525V12.0525ZM18.0556 13.0525V14.0525C18.4336 14.0525 18.7793 13.8394 18.949 13.5016L18.0556 13.0525ZM22.5 4.21051L23.3935 4.65961C23.5493 4.34962 23.5333 3.98101 23.3512 3.68568C23.1691 3.39035 22.847 3.21051 22.5 3.21051V4.21051ZM5.16667 3.21051C4.61438 3.21051 4.16667 3.65822 4.16667 4.21051C4.16667 4.76279 4.61438 5.21051 5.16667 5.21051V3.21051ZM5.96406 13.2496C6.07293 13.7911 6.60011 14.1418 7.14156 14.0329C7.68301 13.924 8.03369 13.3969 7.92482 12.8554L5.96406 13.2496ZM6.14705 4.01339C6.03818 3.47194 5.511 3.12126 4.96955 3.23012C4.4281 3.33899 4.07742 3.86617 4.18629 4.40762L6.14705 4.01339ZM7.64968 13.7615C8.04123 13.372 8.04291 12.7388 7.65342 12.3473C7.26393 11.9557 6.63076 11.9541 6.23921 12.3436L7.64968 13.7615ZM4.39667 15.5869L3.69143 14.8779L4.39667 15.5869ZM18.0556 18.4735C18.6078 18.4735 19.0556 18.0258 19.0556 17.4735C19.0556 16.9213 18.6078 16.4735 18.0556 16.4735V18.4735ZM18.0556 17.4735H17.0556C17.0556 17.7397 17.1616 17.9948 17.3503 18.1825L18.0556 17.4735ZM20.2778 19.684L19.5725 20.393C19.7599 20.5794 20.0135 20.684 20.2778 20.684V19.684ZM9.16667 19.684L8.30179 19.1821C8.21328 19.3345 8.16667 19.5077 8.16667 19.684H9.16667ZM9.16667 21.8945H8.16667C8.16667 22.0709 8.21328 22.244 8.30179 22.3965L9.16667 21.8945ZM2.5 3H4.72222V1H2.5V3ZM3.74184 2.19712L4.18629 4.40762L6.14705 4.01339L5.7026 1.80288L3.74184 2.19712ZM6.94444 14.0525H18.0556V12.0525H6.94444V14.0525ZM18.949 13.5016L23.3935 4.65961L21.6065 3.7614L17.1621 12.6034L18.949 13.5016ZM22.5 3.21051H5.16667V5.21051H22.5V3.21051ZM7.92482 12.8554L6.14705 4.01339L4.18629 4.40762L5.96406 13.2496L7.92482 12.8554ZM6.23921 12.3436L3.69143 14.8779L5.1019 16.2958L7.64968 13.7615L6.23921 12.3436ZM3.69143 14.8779C2.35112 16.2111 3.31103 18.4735 5.18222 18.4735V16.4735C5.14208 16.4735 5.12553 16.4635 5.11734 16.4578C5.10473 16.4489 5.08938 16.4322 5.07888 16.407C5.06837 16.3817 5.06775 16.3602 5.07003 16.3471C5.07136 16.3395 5.07483 16.3228 5.1019 16.2958L3.69143 14.8779ZM5.18222 18.4735H18.0556V16.4735H5.18222V18.4735ZM19.0556 17.4735C19.0556 16.81 19.5978 16.263 20.2778 16.263V14.263C18.5032 14.263 17.0556 15.6954 17.0556 17.4735H19.0556ZM20.2778 16.263C20.9578 16.263 21.5 16.81 21.5 17.4735H23.5C23.5 15.6954 22.0524 14.263 20.2778 14.263V16.263ZM21.5 17.4735C21.5 18.1371 20.9578 18.684 20.2778 18.684V20.684C22.0524 20.684 23.5 19.2516 23.5 17.4735H21.5ZM20.983 18.9751L18.7608 16.7646L17.3503 18.1825L19.5725 20.393L20.983 18.9751ZM10.0315 20.186C10.3068 19.7119 10.8711 19.4771 11.4088 19.6204L11.9239 17.6878C10.5185 17.3133 9.03237 17.9233 8.30179 19.1821L10.0315 20.186ZM11.4088 19.6204C11.9456 19.7635 12.3134 20.2451 12.3134 20.7893H14.3134C14.3134 19.3325 13.3301 18.0627 11.9239 17.6878L11.4088 19.6204ZM12.3134 20.7893C12.3134 21.3335 11.9456 21.8151 11.4088 21.9582L11.9239 23.8907C13.3301 23.5159 14.3134 22.2461 14.3134 20.7893H12.3134ZM11.4088 21.9582C10.8711 22.1015 10.3068 21.8667 10.0315 21.3926L8.30179 22.3965C9.03237 23.6553 10.5185 24.2653 11.9239 23.8907L11.4088 21.9582ZM10.1667 21.8945V19.684H8.16667V21.8945H10.1667Z" fill="black"/>
</svg>
