<svg width="207" height="43" viewBox="0 0 207 43" fill="none" xmlns="http://www.w3.org/2000/svg">
<path fill-rule="evenodd" clip-rule="evenodd" d="M9.50954 19.9721V35.1687C9.50954 35.9316 8.88032 36.55 8.10366 36.55H2.48083C1.70417 36.55 1.07495 35.9316 1.07495 35.1687V7.53864C1.07495 6.96637 1.43393 6.45345 1.97779 6.24888C1.97779 6.24888 14.2073 1.64287 17.8405 0.27453C18.8122 -0.0915101 19.8874 -0.0915101 20.8591 0.27453C24.4924 1.64287 36.7222 6.24888 36.7222 6.24888C37.4466 6.52175 37.8093 7.32114 37.5316 8.033C37.2539 8.74518 36.4405 9.10161 35.7161 8.82874C35.7161 8.82874 23.4863 4.22273 19.853 2.85439C19.5291 2.73237 19.1708 2.73237 18.847 2.85439L3.88637 8.48889V33.7871H6.69812V13.0647C6.69812 12.3018 7.32734 11.6831 8.10366 11.6831H30.596C31.3723 11.6831 32.0019 12.3018 32.0019 13.0647V33.7871H34.8133V13.0647C34.8133 12.3021 35.4432 11.6831 36.2192 11.6831C36.9948 11.6831 37.6247 12.3021 37.6247 13.0647V35.1687C37.6247 35.9316 36.9955 36.55 36.2192 36.55H30.596C29.8197 36.55 29.1901 35.9316 29.1901 35.1687V19.9721H9.50954ZM29.1902 17.2092V14.4463H9.50957V17.2092H29.1902Z" fill="black"/>
<path fill-rule="evenodd" clip-rule="evenodd" d="M103.415 33.8518C103.178 34.1313 102.877 34.3086 102.512 34.3839C102.146 34.4591 101.781 34.4591 101.415 34.3839C101.05 34.3086 100.749 34.2065 100.512 34.0775C100.147 33.8625 99.7815 33.5454 99.416 33.1261C99.0505 32.7069 98.7549 32.1425 98.5291 31.433C98.3034 30.7235 98.1905 29.8098 98.1905 28.6918C98.1905 28.3263 98.126 27.9876 97.997 27.6759C97.868 27.3641 97.6852 27.0954 97.4487 26.8696C97.2122 26.6439 96.9112 26.4719 96.5457 26.3536L96.2595 26.276C95.9612 26.2095 95.6266 26.1763 95.2557 26.1763L89.225 26.1784V32.4328C89.225 32.9918 89.0745 33.4594 88.7735 33.8356C88.4725 34.2119 88.0532 34.4 87.5157 34.4C86.9137 34.4 86.3762 34.2119 85.9032 33.8356C85.4302 33.4594 85.1937 32.9918 85.1937 32.4328V13.7923C85.1937 13.2333 85.3819 12.7656 85.7581 12.3894C86.1344 12.0131 86.602 11.825 87.161 11.825H96.449C97.567 11.825 98.6151 12.1206 99.5934 12.7119C100.572 13.3031 101.362 14.1201 101.964 15.1629C102.566 16.2056 102.867 17.4043 102.867 18.7588C102.867 19.5758 102.7 20.3713 102.367 21.1453C102.034 21.9193 101.582 22.618 101.012 23.2415L100.662 23.5988C100.423 23.8259 100.173 24.0306 99.9113 24.2129L99.7363 24.3273L99.7991 24.3664C100.111 24.5883 100.387 24.8314 100.625 25.0959C101.023 25.5366 101.335 26.0096 101.561 26.5149C101.786 27.0201 101.921 27.563 101.964 28.1435C102.05 28.681 102.109 29.154 102.141 29.5625C102.173 29.971 102.238 30.315 102.335 30.5945C102.431 30.874 102.619 31.089 102.899 31.2395C103.372 31.519 103.668 31.9221 103.786 32.4489C103.904 32.9756 103.78 33.4433 103.415 33.8518ZM96.2877 15.5338H89.225V22.8545H96.2877C96.6747 22.8545 97.051 22.6771 97.4165 22.3224C97.782 21.9676 98.083 21.4839 98.3195 20.8711C98.556 20.2584 98.6742 19.5865 98.6742 18.8555C98.6742 17.9095 98.4216 17.1194 97.9164 16.4851C97.4111 15.8509 96.8682 15.5338 96.2877 15.5338ZM117.025 34.4C119.11 34.4 120.868 33.8948 122.297 32.8843C123.727 31.8738 124.818 30.5139 125.571 28.8046C126.323 27.0954 126.7 25.198 126.7 23.1125C126.7 21.5645 126.49 20.1079 126.071 18.7426C125.651 17.3774 125.028 16.1734 124.2 15.1306C123.372 14.0879 122.357 13.2763 121.153 12.6958C119.949 12.1153 118.573 11.825 117.025 11.825H109.317C108.758 11.825 108.29 12.0131 107.914 12.3894C107.538 12.7656 107.35 13.2333 107.35 13.7923V32.4328C107.35 32.9918 107.538 33.4594 107.914 33.8356C108.29 34.2119 108.758 34.4 109.317 34.4H117.025ZM116.702 15.5338H111.381V30.6913H116.702C118.057 30.6913 119.164 30.3419 120.024 29.6431C120.884 28.9444 121.513 28.0199 121.91 26.8696C122.308 25.7194 122.507 24.467 122.507 23.1125C122.507 22.102 122.394 21.1399 122.168 20.2261C121.943 19.3124 121.593 18.5061 121.12 17.8074C120.647 17.1086 120.045 16.555 119.314 16.1465C118.583 15.738 117.713 15.5338 116.702 15.5338Z" fill="#ACD9B2"/>
<path fill-rule="evenodd" clip-rule="evenodd" d="M184.599 33.798C184.198 34.1993 183.699 34.4 183.103 34.4C182.529 34.4 182.048 34.1993 181.658 33.798C181.268 33.3966 181.073 32.8978 181.073 32.3016V11.0424C181.073 10.4461 181.274 9.9473 181.675 9.54597C182.076 9.14464 182.575 8.94397 183.171 8.94397C183.768 8.94397 184.255 9.14464 184.633 9.54597C185.012 9.9473 185.201 10.4461 185.201 11.0424V32.3016C185.201 32.8978 185 33.3966 184.599 33.798ZM151.197 33.884C149.855 34.4573 148.404 34.744 146.845 34.744C145.24 34.744 143.795 34.5433 142.511 34.142C141.226 33.7406 139.999 33.0354 138.83 32.0264C138.532 31.7741 138.302 31.4874 138.142 31.1664C137.981 30.8453 137.901 30.5242 137.901 30.2032C137.901 29.6757 138.09 29.2113 138.469 28.81C138.847 28.4086 139.323 28.208 139.896 28.208C140.332 28.208 140.722 28.3456 141.066 28.6208C141.937 29.3317 142.803 29.8706 143.663 30.2376C144.523 30.6045 145.584 30.788 146.845 30.788C147.694 30.788 148.473 30.6561 149.184 30.3924C149.895 30.1286 150.468 29.7732 150.904 29.326C151.34 28.8788 151.558 28.3685 151.558 27.7952C151.558 27.1072 151.351 26.5224 150.939 26.0408C150.526 25.5592 149.895 25.1521 149.047 24.8196C148.198 24.487 147.12 24.229 145.813 24.0456C144.575 23.8621 143.485 23.5812 142.545 23.2028C141.605 22.8244 140.819 22.3428 140.189 21.758C139.558 21.1732 139.082 20.4852 138.761 19.694C138.44 18.9028 138.279 18.0141 138.279 17.028C138.279 15.5373 138.664 14.2645 139.432 13.2096C140.2 12.1546 141.238 11.352 142.545 10.8016C143.852 10.2512 145.297 9.97597 146.879 9.97597C148.37 9.97597 149.752 10.1996 151.025 10.6468C152.297 11.094 153.335 11.6616 154.138 12.3496C154.803 12.877 155.135 13.4848 155.135 14.1728C155.135 14.6773 154.94 15.136 154.551 15.5488C154.161 15.9616 153.702 16.168 153.175 16.168C152.831 16.168 152.521 16.0648 152.246 15.8584C151.879 15.5373 151.386 15.2334 150.767 14.9468C150.147 14.6601 149.494 14.4193 148.806 14.2244C148.118 14.0294 147.476 13.932 146.879 13.932C145.893 13.932 145.062 14.0581 144.385 14.3104C143.709 14.5626 143.199 14.9066 142.855 15.3424C142.511 15.7781 142.339 16.2826 142.339 16.856C142.339 17.544 142.539 18.1116 142.941 18.5588C143.342 19.006 143.921 19.3614 144.678 19.6252C145.435 19.8889 146.34 20.124 147.395 20.3304C148.771 20.5826 149.981 20.8808 151.025 21.2248C152.068 21.5688 152.934 22.0102 153.622 22.5492C154.31 23.0881 154.826 23.7646 155.17 24.5788C155.514 25.3929 155.686 26.3848 155.686 27.5544C155.686 29.045 155.273 30.3293 154.447 31.4072C153.622 32.485 152.538 33.3106 151.197 33.884ZM169.153 34.314C168.408 34.6006 167.6 34.744 166.728 34.744C165.146 34.744 163.713 34.3369 162.428 33.5228C161.144 32.7086 160.129 31.5849 159.384 30.1516C158.639 28.7182 158.266 27.0728 158.266 25.2152C158.266 23.3346 158.639 21.6777 159.384 20.2444C160.129 18.811 161.133 17.6873 162.394 16.8732C163.655 16.059 165.054 15.652 166.591 15.652C167.577 15.652 168.483 15.801 169.308 16.0992C170.134 16.3973 170.851 16.7757 171.458 17.2344L171.806 17.5103C171.917 17.6024 172.024 17.6983 172.129 17.7977V17.7504C172.129 17.1541 172.324 16.6553 172.714 16.254C173.104 15.8526 173.597 15.652 174.193 15.652C174.789 15.652 175.282 15.8469 175.672 16.2368C176.062 16.6266 176.257 17.1312 176.257 17.7504V32.3016C176.257 32.8978 176.062 33.3966 175.672 33.798C175.282 34.1993 174.789 34.4 174.193 34.4C173.597 34.4 173.104 34.1993 172.714 33.798L172.535 33.5892C172.319 33.3 172.189 32.9674 172.145 32.5916L172.131 32.336L171.964 32.5155C171.716 32.7673 171.427 33.0171 171.097 33.2648C170.547 33.6776 169.899 34.0273 169.153 34.314ZM167.244 30.96C166.258 30.96 165.387 30.7077 164.63 30.2032C163.873 29.6986 163.282 29.0106 162.858 28.1392C162.434 27.2677 162.222 26.293 162.222 25.2152C162.222 24.1144 162.434 23.1282 162.858 22.2568C163.282 21.3853 163.873 20.6973 164.63 20.1928C165.387 19.6882 166.258 19.436 167.244 19.436C168.253 19.436 169.136 19.6882 169.893 20.1928C170.65 20.6973 171.24 21.3853 171.665 22.2568C172.089 23.1282 172.301 24.1144 172.301 25.2152C172.301 26.293 172.089 27.2677 171.665 28.1392C171.24 29.0106 170.65 29.6986 169.893 30.2032C169.136 30.7077 168.253 30.96 167.244 30.96ZM198.514 34.744C199.66 34.744 200.773 34.5548 201.851 34.1764C202.928 33.798 203.766 33.3565 204.362 32.852C205.004 32.3474 205.325 31.7856 205.325 31.1664C205.325 30.7077 205.159 30.3064 204.826 29.9624C204.494 29.6184 204.075 29.4464 203.571 29.4464C203.204 29.4464 202.814 29.5496 202.401 29.756C202.149 29.8936 201.868 30.0598 201.558 30.2548C201.249 30.4497 200.842 30.616 200.337 30.7536C199.832 30.8912 199.156 30.96 198.307 30.96C197.39 30.96 196.524 30.7364 195.71 30.2892C194.896 29.842 194.231 29.1884 193.715 28.3284C193.42 27.8369 193.21 27.2837 193.083 26.6687L193.074 26.6256H204.431C204.871 26.6256 205.267 26.5155 205.619 26.2953L205.875 26.1096C206.288 25.7656 206.506 25.3184 206.529 24.768C206.529 23.5296 206.294 22.36 205.824 21.2592C205.354 20.1584 204.717 19.1894 203.915 18.3524C203.112 17.5153 202.189 16.856 201.145 16.3744C200.102 15.8928 198.995 15.652 197.826 15.652C196.312 15.652 194.879 16.0418 193.526 16.8216C192.173 17.6013 191.078 18.7193 190.241 20.1756C189.404 21.6318 188.985 23.392 188.985 25.456C188.985 27.2218 189.369 28.8042 190.137 30.2032C190.906 31.6021 192.006 32.7086 193.44 33.5228C194.873 34.3369 196.564 34.744 198.514 34.744ZM193.111 23.1856H202.126V22.9448C202.08 22.2797 201.845 21.6834 201.421 21.156C200.996 20.6285 200.469 20.21 199.838 19.9004C199.207 19.5908 198.537 19.436 197.826 19.436C197.138 19.436 196.496 19.5277 195.899 19.7112C195.303 19.8946 194.787 20.2042 194.351 20.64C193.916 21.0757 193.572 21.6605 193.319 22.3944L193.204 22.7775L193.111 23.1856Z" fill="black"/>
<path d="M52.7717 34.4C53.2662 34.4 53.7016 34.2119 54.0778 33.8357C54.4541 33.4594 54.6422 32.9918 54.6422 32.4328V32.4328V24.5724L61.3825 14.921C61.4685 14.792 61.5377 14.6606 61.5903 14.5269L61.6566 14.3244C61.7103 14.1201 61.7372 13.9213 61.7372 13.7278C61.7372 13.1473 61.5383 12.6689 61.1406 12.2926C60.7428 11.9164 60.2967 11.7283 59.8022 11.7283C59.1787 11.7283 58.6412 12.0508 58.1897 12.6958V12.6958L52.8728 20.4745L47.1925 12.6313C46.8055 12.1153 46.3632 11.8204 45.8656 11.7467L45.6122 11.7283C45.1392 11.7283 44.677 11.911 44.2255 12.2765C43.774 12.642 43.5482 13.115 43.5482 13.6955C43.5482 13.9105 43.5912 14.147 43.6772 14.405C43.7632 14.663 43.9137 14.9318 44.1287 15.2113V15.2113L50.8367 24.1273V32.4328C50.8367 32.8986 50.9674 33.301 51.2286 33.6399L51.4011 33.8357C51.7773 34.2119 52.2342 34.4 52.7717 34.4Z" fill="#ACD9B2"/>
<path fill-rule="evenodd" clip-rule="evenodd" d="M80.8131 34.0453C80.4368 34.3893 80.0229 34.5613 79.5714 34.5613C79.1844 34.5613 78.8351 34.443 78.5233 34.2065L78.3026 34.013C78.095 33.8034 77.9267 33.5454 77.7977 33.239L76.1228 29.3368H66.5059L64.8332 33.2713C64.6827 33.6798 64.4515 33.9969 64.1398 34.2226C63.828 34.4484 63.4894 34.5613 63.1239 34.5613C62.5434 34.5613 62.1134 34.4 61.8339 34.0775C61.5544 33.755 61.4147 33.3573 61.4147 32.8843C61.4147 32.6908 61.4469 32.4865 61.5114 32.2715L69.5417 12.986C69.7137 12.556 69.977 12.2228 70.3318 11.9863C70.6865 11.7498 71.0682 11.653 71.4767 11.696C71.8637 11.696 72.2238 11.8089 72.557 12.0346C72.8903 12.2604 73.1322 12.5775 73.2827 12.986L81.2162 31.8845C81.3237 32.164 81.3774 32.422 81.3774 32.6585C81.3774 33.239 81.1893 33.7013 80.8131 34.0453ZM68.084 25.628H74.5319L71.2918 18.0794L68.084 25.628Z" fill="#ACD9B2"/>
</svg>
