<svg width="145" height="30" viewBox="0 0 145 30" fill="none" xmlns="http://www.w3.org/2000/svg">
<path fill-rule="evenodd" clip-rule="evenodd" d="M6.63459 13.934V24.5363C6.63459 25.0686 6.1956 25.5 5.65375 25.5H1.73084C1.18899 25.5 0.75 25.0686 0.75 24.5363V5.25952C0.75 4.86026 1.00045 4.50241 1.37989 4.35968C1.37989 4.35968 9.91208 1.14619 12.4469 0.191533C13.1248 -0.0638443 13.875 -0.0638443 14.5529 0.191533C17.0878 1.14619 25.6202 4.35968 25.6202 4.35968C26.1255 4.55006 26.3786 5.10777 26.1849 5.60442C25.9911 6.10129 25.4236 6.34996 24.9183 6.15958C24.9183 6.15958 16.3858 2.94609 13.851 1.99143C13.625 1.90631 13.375 1.90631 13.1491 1.99143L2.71145 5.92248V23.5724H4.67314V9.11493C4.67314 8.58266 5.11213 8.15102 5.65375 8.15102H21.3461C21.8877 8.15102 22.3269 8.58266 22.3269 9.11493V23.5724H24.2884V9.11493C24.2884 8.58289 24.7278 8.15102 25.2692 8.15102C25.8104 8.15102 26.2498 8.58289 26.2498 9.11493V24.5363C26.2498 25.0686 25.8108 25.5 25.2692 25.5H21.3461C20.8045 25.5 20.3652 25.0686 20.3652 24.5363V13.934H6.63459ZM20.3652 12.0064V10.0788H6.63459V12.0064H20.3652Z" fill="black"/>
<path fill-rule="evenodd" clip-rule="evenodd" d="M72.15 23.6175C71.985 23.8125 71.775 23.9363 71.52 23.9888C71.265 24.0413 71.01 24.0413 70.755 23.9888C70.5 23.9363 70.29 23.865 70.125 23.775C69.87 23.625 69.615 23.4038 69.36 23.1112C69.105 22.8188 68.8988 22.425 68.7413 21.93C68.5838 21.435 68.505 20.7975 68.505 20.0175C68.505 19.7625 68.46 19.5262 68.37 19.3088C68.28 19.0912 68.1525 18.9037 67.9875 18.7463C67.8225 18.5887 67.6125 18.4688 67.3575 18.3863L67.1578 18.3321C66.9497 18.2857 66.7163 18.2625 66.4575 18.2625L62.25 18.264V22.6275C62.25 23.0175 62.145 23.3438 61.935 23.6063C61.725 23.8688 61.4325 24 61.0575 24C60.6375 24 60.2625 23.8688 59.9325 23.6063C59.6025 23.3438 59.4375 23.0175 59.4375 22.6275V9.6225C59.4375 9.2325 59.5688 8.90625 59.8313 8.64375C60.0938 8.38125 60.42 8.25 60.81 8.25H67.29C68.07 8.25 68.8013 8.45625 69.4838 8.86875C70.1663 9.28125 70.7175 9.85125 71.1375 10.5788C71.5575 11.3063 71.7675 12.1425 71.7675 13.0875C71.7675 13.6575 71.6513 14.2125 71.4188 14.7525C71.1863 15.2925 70.8713 15.78 70.4738 16.215L70.2294 16.4643C70.0626 16.6227 69.888 16.7655 69.7056 16.8927L69.5835 16.9725L69.6273 16.9998C69.8451 17.1546 70.0373 17.3243 70.2038 17.5087C70.4813 17.8162 70.6988 18.1462 70.8563 18.4987C71.0138 18.8512 71.1075 19.23 71.1375 19.635C71.1975 20.01 71.2388 20.34 71.2613 20.625C71.2838 20.91 71.3288 21.15 71.3963 21.345C71.4638 21.54 71.595 21.69 71.79 21.795C72.12 21.99 72.3263 22.2712 72.4088 22.6388C72.4913 23.0062 72.405 23.3325 72.15 23.6175ZM67.1775 10.8375H62.25V15.945H67.1775C67.4475 15.945 67.71 15.8212 67.965 15.5737C68.22 15.3262 68.43 14.9887 68.595 14.5612C68.76 14.1337 68.8425 13.665 68.8425 13.155C68.8425 12.495 68.6662 11.9437 68.3137 11.5012C67.9612 11.0587 67.5825 10.8375 67.1775 10.8375ZM81.645 24C83.1 24 84.3263 23.6475 85.3238 22.9425C86.3213 22.2375 87.0825 21.2887 87.6075 20.0963C88.1325 18.9038 88.395 17.58 88.395 16.125C88.395 15.045 88.2488 14.0287 87.9563 13.0763C87.6638 12.1237 87.2288 11.2838 86.6513 10.5563C86.0738 9.82875 85.365 9.2625 84.525 8.8575C83.685 8.4525 82.725 8.25 81.645 8.25H76.2675C75.8775 8.25 75.5513 8.38125 75.2888 8.64375C75.0263 8.90625 74.895 9.2325 74.895 9.6225V22.6275C74.895 23.0175 75.0263 23.3438 75.2888 23.6063C75.5513 23.8688 75.8775 24 76.2675 24H81.645ZM81.42 10.8375H77.7075V21.4125H81.42C82.365 21.4125 83.1375 21.1688 83.7375 20.6813C84.3375 20.1938 84.7763 19.5488 85.0538 18.7463C85.3313 17.9438 85.47 17.07 85.47 16.125C85.47 15.42 85.3913 14.7487 85.2338 14.1112C85.0763 13.4737 84.8325 12.9112 84.5025 12.4237C84.1725 11.9362 83.7525 11.55 83.2425 11.265C82.7325 10.98 82.125 10.8375 81.42 10.8375Z" fill="#ACD9B2"/>
<path fill-rule="evenodd" clip-rule="evenodd" d="M128.79 23.58C128.51 23.86 128.162 24 127.746 24C127.346 24 127.01 23.86 126.738 23.58C126.466 23.3 126.33 22.952 126.33 22.536V7.70401C126.33 7.28801 126.47 6.94001 126.75 6.66001C127.03 6.38001 127.378 6.24001 127.794 6.24001C128.21 6.24001 128.55 6.38001 128.814 6.66001C129.078 6.94001 129.21 7.28801 129.21 7.70401V22.536C129.21 22.952 129.07 23.3 128.79 23.58ZM105.486 23.64C104.55 24.04 103.538 24.24 102.45 24.24C101.33 24.24 100.322 24.1 99.426 23.82C98.53 23.54 97.674 23.048 96.858 22.344C96.65 22.168 96.49 21.968 96.378 21.744C96.266 21.52 96.21 21.296 96.21 21.072C96.21 20.704 96.342 20.38 96.606 20.1C96.87 19.82 97.202 19.68 97.602 19.68C97.906 19.68 98.178 19.776 98.418 19.968C99.026 20.464 99.63 20.84 100.23 21.096C100.83 21.352 101.57 21.48 102.45 21.48C103.042 21.48 103.586 21.388 104.082 21.204C104.578 21.02 104.978 20.772 105.282 20.46C105.586 20.148 105.738 19.792 105.738 19.392C105.738 18.912 105.594 18.504 105.306 18.168C105.018 17.832 104.578 17.548 103.986 17.316C103.394 17.084 102.642 16.904 101.73 16.776C100.866 16.648 100.106 16.452 99.45 16.188C98.794 15.924 98.246 15.588 97.806 15.18C97.366 14.772 97.034 14.292 96.81 13.74C96.586 13.188 96.474 12.568 96.474 11.88C96.474 10.84 96.742 9.95201 97.278 9.21601C97.814 8.48001 98.538 7.92001 99.45 7.53601C100.362 7.15201 101.37 6.96001 102.474 6.96001C103.514 6.96001 104.478 7.11601 105.366 7.42801C106.254 7.74001 106.978 8.13601 107.538 8.61601C108.002 8.98401 108.234 9.40801 108.234 9.88801C108.234 10.24 108.098 10.56 107.826 10.848C107.554 11.136 107.234 11.28 106.866 11.28C106.626 11.28 106.41 11.208 106.218 11.064C105.962 10.84 105.618 10.628 105.186 10.428C104.754 10.228 104.298 10.06 103.818 9.92401C103.338 9.78801 102.89 9.72001 102.474 9.72001C101.786 9.72001 101.206 9.80801 100.734 9.98401C100.262 10.16 99.906 10.4 99.666 10.704C99.426 11.008 99.306 11.36 99.306 11.76C99.306 12.24 99.446 12.636 99.726 12.948C100.006 13.26 100.41 13.508 100.938 13.692C101.466 13.876 102.098 14.04 102.834 14.184C103.794 14.36 104.638 14.568 105.366 14.808C106.094 15.048 106.698 15.356 107.178 15.732C107.658 16.108 108.018 16.58 108.258 17.148C108.498 17.716 108.618 18.408 108.618 19.224C108.618 20.264 108.33 21.16 107.754 21.912C107.178 22.664 106.422 23.24 105.486 23.64ZM118.014 23.94C117.494 24.14 116.93 24.24 116.322 24.24C115.218 24.24 114.218 23.956 113.322 23.388C112.426 22.82 111.718 22.036 111.198 21.036C110.678 20.036 110.418 18.888 110.418 17.592C110.418 16.28 110.678 15.124 111.198 14.124C111.718 13.124 112.418 12.34 113.298 11.772C114.178 11.204 115.154 10.92 116.226 10.92C116.914 10.92 117.546 11.024 118.122 11.232C118.698 11.44 119.198 11.704 119.622 12.024L119.865 12.2165C119.942 12.2808 120.017 12.3476 120.09 12.417V12.384C120.09 11.968 120.226 11.62 120.498 11.34C120.77 11.06 121.114 10.92 121.53 10.92C121.946 10.92 122.29 11.056 122.562 11.328C122.834 11.6 122.97 11.952 122.97 12.384V22.536C122.97 22.952 122.834 23.3 122.562 23.58C122.29 23.86 121.946 24 121.53 24C121.114 24 120.77 23.86 120.498 23.58L120.373 23.4343C120.222 23.2326 120.132 23.0006 120.101 22.7383L120.091 22.56L119.975 22.6853C119.802 22.861 119.6 23.0352 119.37 23.208C118.986 23.496 118.534 23.74 118.014 23.94ZM116.682 21.6C115.994 21.6 115.386 21.424 114.858 21.072C114.33 20.72 113.918 20.24 113.622 19.632C113.326 19.024 113.178 18.344 113.178 17.592C113.178 16.824 113.326 16.136 113.622 15.528C113.918 14.92 114.33 14.44 114.858 14.088C115.386 13.736 115.994 13.56 116.682 13.56C117.386 13.56 118.002 13.736 118.53 14.088C119.058 14.44 119.47 14.92 119.766 15.528C120.062 16.136 120.21 16.824 120.21 17.592C120.21 18.344 120.062 19.024 119.766 19.632C119.47 20.24 119.058 20.72 118.53 21.072C118.002 21.424 117.386 21.6 116.682 21.6ZM138.498 24.24C139.298 24.24 140.074 24.108 140.826 23.844C141.578 23.58 142.162 23.272 142.578 22.92C143.026 22.568 143.25 22.176 143.25 21.744C143.25 21.424 143.134 21.144 142.902 20.904C142.67 20.664 142.378 20.544 142.026 20.544C141.77 20.544 141.498 20.616 141.21 20.76C141.034 20.856 140.838 20.972 140.622 21.108C140.406 21.244 140.122 21.36 139.77 21.456C139.418 21.552 138.946 21.6 138.354 21.6C137.714 21.6 137.11 21.444 136.542 21.132C135.974 20.82 135.51 20.364 135.15 19.764C134.944 19.4211 134.797 19.0352 134.709 18.6061L134.703 18.576H142.626C142.933 18.576 143.21 18.4992 143.455 18.3456L143.634 18.216C143.922 17.976 144.074 17.664 144.09 17.28C144.09 16.416 143.926 15.6 143.598 14.832C143.27 14.064 142.826 13.388 142.266 12.804C141.706 12.22 141.062 11.76 140.334 11.424C139.606 11.088 138.834 10.92 138.018 10.92C136.962 10.92 135.962 11.192 135.018 11.736C134.074 12.28 133.31 13.06 132.726 14.076C132.142 15.092 131.85 16.32 131.85 17.76C131.85 18.992 132.118 20.096 132.654 21.072C133.19 22.048 133.958 22.82 134.958 23.388C135.958 23.956 137.138 24.24 138.498 24.24ZM134.728 16.176H141.018V16.008C140.986 15.544 140.822 15.128 140.526 14.76C140.23 14.392 139.862 14.1 139.422 13.884C138.982 13.668 138.514 13.56 138.018 13.56C137.538 13.56 137.09 13.624 136.674 13.752C136.258 13.88 135.898 14.096 135.594 14.4C135.29 14.704 135.05 15.112 134.874 15.624L134.793 15.8913L134.728 16.176Z" fill="black"/>
<path d="M36.8176 24C37.1626 24 37.4663 23.8687 37.7288 23.6062C37.9913 23.3437 38.1226 23.0175 38.1226 22.6275V22.6275V17.1435L42.8251 10.41C42.8851 10.32 42.9334 10.2283 42.9701 10.135L43.0163 9.99375C43.0538 9.85125 43.0726 9.7125 43.0726 9.5775C43.0726 9.1725 42.9338 8.83875 42.6563 8.57625C42.3788 8.31375 42.0676 8.1825 41.7226 8.1825C41.2876 8.1825 40.9126 8.4075 40.5976 8.8575V8.8575L36.8881 14.2845L32.9251 8.8125C32.6551 8.4525 32.3465 8.24678 31.9994 8.19535L31.8226 8.1825C31.4926 8.1825 31.1701 8.31 30.8551 8.565C30.5401 8.82 30.3826 9.15 30.3826 9.555C30.3826 9.705 30.4126 9.87 30.4726 10.05C30.5326 10.23 30.6376 10.4175 30.7876 10.6125V10.6125L35.4676 16.833V22.6275C35.4676 22.9525 35.5587 23.2332 35.741 23.4697L35.8613 23.6062C36.1238 23.8687 36.4426 24 36.8176 24Z" fill="#ACD9B2"/>
<path fill-rule="evenodd" clip-rule="evenodd" d="M56.3812 23.7525C56.1187 23.9925 55.8299 24.1125 55.5149 24.1125C55.2449 24.1125 55.0012 24.03 54.7837 23.865L54.6297 23.73C54.4848 23.5837 54.3674 23.4037 54.2774 23.19L53.1089 20.4675H46.3994L45.2324 23.2125C45.1274 23.4975 44.9662 23.7187 44.7487 23.8762C44.5312 24.0337 44.2949 24.1125 44.0399 24.1125C43.6349 24.1125 43.3349 24 43.1399 23.775C42.9449 23.55 42.8474 23.2725 42.8474 22.9425C42.8474 22.8075 42.8699 22.665 42.9149 22.515L48.5174 9.06C48.6374 8.76 48.8212 8.5275 49.0687 8.3625C49.3162 8.1975 49.5824 8.13 49.8674 8.16C50.1374 8.16 50.3887 8.23875 50.6212 8.39625C50.8537 8.55375 51.0224 8.775 51.1274 9.06L56.6624 22.245C56.7374 22.44 56.7749 22.62 56.7749 22.785C56.7749 23.19 56.6437 23.5125 56.3812 23.7525ZM47.5004 17.88H51.9989L49.7384 12.6135L47.5004 17.88Z" fill="#ACD9B2"/>
</svg>
